<svg xmlns="http://www.w3.org/2000/svg" width="280" height="280" viewBox="0 0 280 280">
  <title>icon-white</title>
  <rect x="90" y="65" width="20" height="20" rx="5" ry="5" fill="#fff"/>
  <rect x="120" y="65" width="20" height="20" rx="5" ry="5" fill="#fff"/>
  <rect x="150" y="65" width="20" height="20" rx="5" ry="5" fill="#fff"/>
  <polygon points="40 90 30 80 30 120 40 110 40 90" fill="#fff"/>
  <path d="M103.07367,90H40v20H74.11261A75.11469,75.11469,0,0,1,103.07367,90Z" fill="#fff"/>
  <rect x="130" y="90" width="70" height="20" fill="#fff"/>
  <polygon points="200 90 230 60 230 140 200 110 200 90" fill="#fff"/>
  <rect x="230" y="50" width="20" height="100" rx="5" ry="5" fill="#fff"/>
  <path d="M80.40521,110.40515A70.44205,70.44205,0,0,0,62.86584,180H84.123A49.92155,49.92155,0,0,1,130,110V90.01154A69.89665,69.89665,0,0,0,80.40521,110.40515Z" fill="#fff"/>
  <path d="M98.11761,128.11761A44.4877,44.4877,0,0,0,90,139.25073V175h20V119.632A44.47016,44.47016,0,0,0,98.11761,128.11761Z" fill="#fff"/>
  <path d="M120,116.12811V175h20V116.12811A45.81636,45.81636,0,0,0,120,116.12811Z" fill="#fff"/>
  <path d="M161.88239,128.11761A44.47016,44.47016,0,0,0,150,119.632V175h20V139.25073A44.4877,44.4877,0,0,0,161.88239,128.11761Z" fill="#fff"/>
  <path d="M151.92352,115a49.41314,49.41314,0,0,1,13.50134,9.57513A50.37739,50.37739,0,0,1,175.877,180h21.23566a70.58451,70.58451,0,0,0-13.33838-65Z" fill="#fff"/>
  <path d="M72.42368,200H187.57632a69.5215,69.5215,0,0,0,9.5578-20H62.86588A69.5215,69.5215,0,0,0,72.42368,200Z" fill="#fff"/>
  <path d="M90,217.57629a69.52149,69.52149,0,0,0,20,9.5578V205H90Z" fill="#fff"/>
  <path d="M120,229.296a71.37066,71.37066,0,0,0,20,0V205H120Z" fill="#fff"/>
  <path d="M150,227.13409a69.52149,69.52149,0,0,0,20-9.5578V205H150Z" fill="#fff"/>
</svg>
